<svg width="170" height="57" viewBox="0 0 170 57" fill="none" xmlns="http://www.w3.org/2000/svg">
<rect x="0.09375" y="0.75" width="169.797" height="56" rx="28" fill="#0071E3"/>
<path d="M32.6305 34.75H34.1246V29.562H39.4288V28.2339H34.1246V24.1167H39.902V22.772H32.6305V34.75ZM42.5661 24.0752C43.1139 24.0752 43.5622 23.627 43.5622 23.0791C43.5622 22.5312 43.1139 22.083 42.5661 22.083C42.0182 22.083 41.57 22.5312 41.57 23.0791C41.57 23.627 42.0182 24.0752 42.5661 24.0752ZM41.8356 34.75H43.2799V25.8018H41.8356V34.75ZM45.6286 34.75H47.0729V29.4541C47.0729 27.8853 47.9777 26.9224 49.4055 26.9224C50.8332 26.9224 51.4973 27.6943 51.4973 29.3047V34.75H52.9416V28.9561C52.9416 26.8311 51.821 25.644 49.8122 25.644C48.4924 25.644 47.654 26.2002 47.2058 27.1465H47.0729V25.8018H45.6286V34.75ZM58.486 34.9077C59.7312 34.9077 60.7273 34.3184 61.2751 33.3223H61.4079V34.75H62.8523V22.249H61.4079V27.2129H61.2751C60.7854 26.2583 59.7146 25.644 58.486 25.644C56.2116 25.644 54.7341 27.4619 54.7341 30.2676V30.2842C54.7341 33.0732 56.2199 34.9077 58.486 34.9077ZM58.8181 33.6294C57.1828 33.6294 56.2116 32.3677 56.2116 30.2842V30.2676C56.2116 28.1841 57.1828 26.9224 58.8181 26.9224C60.445 26.9224 61.4411 28.2007 61.4411 30.2676V30.2842C61.4411 32.3511 60.445 33.6294 58.8181 33.6294ZM70.4216 37.8877C72.0071 37.8877 72.7459 37.3066 73.4846 35.2979L76.9793 25.8018H75.4602L73.0115 33.1646H72.8787L70.4216 25.8018H68.8777L72.1897 34.7583L72.0237 35.2896C71.7 36.3188 71.2019 36.6924 70.3801 36.6924C70.1809 36.6924 69.9568 36.6841 69.7825 36.6509V37.8379C69.9817 37.8711 70.2307 37.8877 70.4216 37.8877ZM81.8597 34.9077C84.408 34.9077 85.9851 33.1479 85.9851 30.2842V30.2676C85.9851 27.3955 84.408 25.644 81.8597 25.644C79.3113 25.644 77.7342 27.3955 77.7342 30.2676V30.2842C77.7342 33.1479 79.3113 34.9077 81.8597 34.9077ZM81.8597 33.6294C80.1663 33.6294 79.2117 32.3926 79.2117 30.2842V30.2676C79.2117 28.1509 80.1663 26.9224 81.8597 26.9224C83.553 26.9224 84.5076 28.1509 84.5076 30.2676V30.2842C84.5076 32.3926 83.553 33.6294 81.8597 33.6294ZM90.8489 34.9077C92.1605 34.9077 93.0652 34.3682 93.5052 33.4136H93.638V34.75H95.0823V25.8018H93.638V31.0977C93.638 32.6665 92.7996 33.6294 91.2225 33.6294C89.7947 33.6294 89.2137 32.8574 89.2137 31.2471V25.8018H87.7693V31.5957C87.7693 33.7124 88.8152 34.9077 90.8489 34.9077ZM97.4061 34.75H98.8504V29.2051C98.8504 27.8936 99.8299 27.022 101.208 27.022C101.523 27.022 101.797 27.0552 102.096 27.105V25.7021C101.955 25.6772 101.648 25.644 101.374 25.644C100.162 25.644 99.3236 26.1919 98.9832 27.1299H98.8504V25.8018H97.4061V34.75ZM111.218 34.9077C112.463 34.9077 113.459 34.3184 114.007 33.3223H114.14V34.75H115.584V22.249H114.14V27.2129H114.007C113.517 26.2583 112.446 25.644 111.218 25.644C108.943 25.644 107.466 27.4619 107.466 30.2676V30.2842C107.466 33.0732 108.952 34.9077 111.218 34.9077ZM111.55 33.6294C109.914 33.6294 108.943 32.3677 108.943 30.2842V30.2676C108.943 28.1841 109.914 26.9224 111.55 26.9224C113.177 26.9224 114.173 28.2007 114.173 30.2676V30.2842C114.173 32.3511 113.177 33.6294 111.55 33.6294ZM121.635 34.9077C123.743 34.9077 125.021 33.7124 125.329 32.5005L125.345 32.4341H123.901L123.868 32.5088C123.627 33.0483 122.88 33.6211 121.668 33.6211C120.074 33.6211 119.053 32.542 119.012 30.6909H125.453V30.1265C125.453 27.4536 123.975 25.644 121.543 25.644C119.111 25.644 117.534 27.5366 117.534 30.3008V30.3091C117.534 33.1147 119.078 34.9077 121.635 34.9077ZM121.535 26.9307C122.855 26.9307 123.834 27.769 123.984 29.5371H119.037C119.194 27.8354 120.207 26.9307 121.535 26.9307ZM129.777 34.9077C130.981 34.9077 131.919 34.3848 132.483 33.4302H132.616V34.75H134.06V28.624C134.06 26.7646 132.84 25.644 130.657 25.644C128.748 25.644 127.387 26.5903 127.154 27.9932L127.146 28.043H128.59L128.599 28.0181C128.831 27.3208 129.537 26.9224 130.607 26.9224C131.944 26.9224 132.616 27.52 132.616 28.624V29.4375L130.051 29.5952C127.968 29.7197 126.789 30.6411 126.789 32.2349V32.2515C126.789 33.8784 128.076 34.9077 129.777 34.9077ZM128.267 32.2183V32.2017C128.267 31.3135 128.864 30.832 130.226 30.749L132.616 30.5996V31.4131C132.616 32.6914 131.545 33.6543 130.076 33.6543C129.039 33.6543 128.267 33.123 128.267 32.2183ZM136.409 34.75H137.853V22.249H136.409V34.75Z" fill="white"/>
</svg>
